<?xml version="1.0" encoding="utf-8"?>
<!-- Generator: Adobe Illustrator 16.0.0, SVG Export Plug-In . SVG Version: 6.00 Build 0)  -->
<!DOCTYPE svg PUBLIC "-//W3C//DTD SVG 1.1//EN" "http://www.w3.org/Graphics/SVG/1.1/DTD/svg11.dtd">
<svg version="1.1" id="레이어_1" xmlns="http://www.w3.org/2000/svg" xmlns:xlink="http://www.w3.org/1999/xlink" x="0px"
	 y="0px" width="545.808px" height="480px" viewBox="0 0 545.808 480" enable-background="new 0 0 545.808 480"
	 xml:space="preserve">
<polygon fill="#FF6936" points="273.763,0.328 273.763,84.17 513.085,84.844 478.865,42.59 513.085,0.328 "/>
<polygon fill="#ECE6F2" points="0,480 545.808,480 426.041,200.722 369.577,213.241 273.762,84.199 116.921,320.07 76.139,312.113 
	"/>
<polygon fill="#333438" points="0,480 272.106,480 272.106,359.268 150.563,269.317 116.721,320.63 76.039,312.184 "/>
<polygon fill="#202125" points="271.194,480 425.469,480 390.109,307.877 326.234,301.262 271.48,359.168 "/>
<polygon fill="#15141B" points="425.469,480 545.808,480 448.854,253.841 389.542,307.641 "/>
<polygon fill="#FFF5F5" points="273.762,84.199 271.48,358.223 150.963,269.317 "/>
<g opacity="0.5">
	<g>
		<path fill="#15141B" d="M351.426,57.525h-5.928l-1.529,7.648h-14.596l1.529-7.648h-23.136l1.912-9.561l23.902-27.407h15.934
			l-21.416,25.304h5.863l1.34-6.82h13.895l-1.34,6.82h5.928L351.426,57.525z"/>
		<path fill="#15141B" d="M370.482,64.122c-2.593-1.38-4.601-3.378-6.023-5.991c-1.424-2.613-2.135-5.746-2.135-9.401
			c0-5.523,1.04-10.506,3.123-14.946c2.081-4.44,4.96-7.924,8.636-10.453c3.675-2.527,7.808-3.792,12.397-3.792
			c3.483,0,6.521,0.691,9.114,2.071c2.591,1.381,4.599,3.378,6.022,5.991s2.136,5.747,2.136,9.401
			c0,5.524-1.042,10.506-3.123,14.946c-2.083,4.441-4.962,7.925-8.637,10.453c-3.676,2.528-7.808,3.792-12.396,3.792
			C376.112,66.194,373.073,65.502,370.482,64.122z M385.269,51.343c1.147-1.869,2.008-4.111,2.582-6.724
			c0.573-2.613,0.86-5.024,0.86-7.234c0-3.866-1.254-5.8-3.761-5.8c-1.615,0-2.995,0.935-4.143,2.805
			c-1.147,1.87-2.008,4.111-2.581,6.724c-0.574,2.613-0.861,5.025-0.861,7.234c0,3.867,1.253,5.8,3.761,5.8
			C382.74,54.147,384.122,53.213,385.269,51.343z"/>
		<path fill="#15141B" d="M453.657,57.525h-5.927l-1.53,7.648h-14.596l1.53-7.648h-23.137l1.912-9.561l23.901-27.407h15.934
			L430.33,45.862h5.863l1.339-6.82h13.895l-1.339,6.82h5.928L453.657,57.525z"/>
	</g>
</g>
<g display="none" opacity="0.5">
	
		<text transform="matrix(1 0 0 1 677.2754 259.1738)" display="inline" fill="#15141B" font-family="'Montserrat-BlackItalic'" font-size="63.7367" letter-spacing="6">404</text>
</g>
</svg>
