<?xml version="1.0" encoding="utf-8"?>
<!-- Generator: Adobe Illustrator 16.0.0, SVG Export Plug-In . SVG Version: 6.00 Build 0)  -->
<!DOCTYPE svg PUBLIC "-//W3C//DTD SVG 1.1//EN" "http://www.w3.org/Graphics/SVG/1.1/DTD/svg11.dtd">
<svg version="1.1" id="레이어_1" xmlns="http://www.w3.org/2000/svg" xmlns:xlink="http://www.w3.org/1999/xlink" x="0px"
	 y="0px" width="545.808px" height="480px" viewBox="0 0 545.808 480" enable-background="new 0 0 545.808 480"
	 xml:space="preserve">
<polygon fill="#FF6936" points="273.763,0.328 273.763,84.17 513.085,84.844 478.865,42.59 513.085,0.328 "/>
<polygon fill="#ECE6F2" points="0,480 545.808,480 426.041,200.722 369.577,213.241 273.762,84.199 116.921,320.07 76.139,312.113 
	"/>
<polygon fill="#333438" points="0,480 272.106,480 272.106,359.268 150.563,269.317 116.721,320.63 76.039,312.184 "/>
<polygon fill="#202125" points="271.194,480 425.469,480 390.109,307.877 326.234,301.262 271.48,359.168 "/>
<polygon fill="#15141B" points="425.469,480 545.808,480 448.854,253.841 389.542,307.641 "/>
<polygon fill="#FFF5F5" points="273.762,84.199 271.48,358.223 150.963,269.317 "/>
<g opacity="0.5">
	<g>
		<path fill="#15141B" d="M330.5,32.903l-1.211,4.398h1.146c5.355,0,9.465,1.063,12.334,3.187c2.867,2.125,4.303,5.249,4.303,9.37
			c0,3.527-0.979,6.607-2.932,9.242c-1.955,2.635-4.645,4.643-8.063,6.023c-3.422,1.38-7.299,2.072-11.633,2.072
			c-3.272,0-6.385-0.383-9.337-1.147c-2.954-0.765-5.577-1.933-7.872-3.505l6.82-10.453c1.699,1.063,3.547,1.871,5.545,2.422
			c1.997,0.552,3.952,0.828,5.864,0.828c2.082,0,3.676-0.329,4.781-0.988c1.104-0.658,1.656-1.583,1.656-2.772
			c0-0.977-0.426-1.71-1.275-2.199c-0.85-0.488-2.273-0.733-4.27-0.733h-13.576l7.648-27.088h29.637l-2.293,11.345H330.5z"/>
		<path fill="#15141B" d="M365.555,65.122c-2.593-1.38-4.601-3.378-6.023-5.991c-1.424-2.613-2.135-5.746-2.135-9.401
			c0-5.523,1.04-10.506,3.123-14.946c2.081-4.44,4.96-7.924,8.636-10.453c3.675-2.527,7.808-3.792,12.397-3.792
			c3.483,0,6.521,0.691,9.114,2.071c2.591,1.381,4.599,3.378,6.022,5.991s2.136,5.747,2.136,9.401
			c0,5.524-1.042,10.506-3.123,14.946c-2.083,4.441-4.962,7.925-8.637,10.453c-3.676,2.528-7.808,3.792-12.396,3.792
			C371.185,67.194,368.146,66.502,365.555,65.122z M380.341,52.343c1.147-1.869,2.008-4.111,2.582-6.724
			c0.573-2.613,0.86-5.024,0.86-7.234c0-3.866-1.254-5.8-3.761-5.8c-1.615,0-2.995,0.935-4.143,2.805
			c-1.147,1.87-2.008,4.111-2.581,6.724c-0.574,2.613-0.861,5.025-0.861,7.234c0,3.867,1.253,5.8,3.761,5.8
			C377.813,55.147,379.194,54.213,380.341,52.343z"/>
		<path fill="#15141B" d="M416.033,65.122c-2.593-1.38-4.601-3.378-6.023-5.991c-1.424-2.613-2.135-5.746-2.135-9.401
			c0-5.523,1.04-10.506,3.123-14.946c2.081-4.44,4.96-7.924,8.636-10.453c3.675-2.527,7.808-3.792,12.397-3.792
			c3.483,0,6.521,0.691,9.114,2.071c2.591,1.381,4.599,3.378,6.022,5.991s2.136,5.747,2.136,9.401
			c0,5.524-1.042,10.506-3.123,14.946c-2.083,4.441-4.962,7.925-8.637,10.453c-3.676,2.528-7.808,3.792-12.396,3.792
			C421.663,67.194,418.624,66.502,416.033,65.122z M430.819,52.343c1.147-1.869,2.008-4.111,2.582-6.724
			c0.573-2.613,0.86-5.024,0.86-7.234c0-3.866-1.254-5.8-3.761-5.8c-1.615,0-2.995,0.935-4.143,2.805
			c-1.147,1.87-2.008,4.111-2.581,6.724c-0.574,2.613-0.861,5.025-0.861,7.234c0,3.867,1.253,5.8,3.761,5.8
			C428.291,55.147,429.673,54.213,430.819,52.343z"/>
	</g>
</g>
</svg>
