<?xml version="1.0" encoding="utf-8"?>
<!-- Generator: Adobe Illustrator 16.0.0, SVG Export Plug-In . SVG Version: 6.00 Build 0)  -->
<!DOCTYPE svg PUBLIC "-//W3C//DTD SVG 1.1//EN" "http://www.w3.org/Graphics/SVG/1.1/DTD/svg11.dtd">
<svg version="1.1" id="레이어_1" xmlns="http://www.w3.org/2000/svg" xmlns:xlink="http://www.w3.org/1999/xlink" x="0px"
	 y="0px" width="370.193px" height="155.189px" viewBox="0 0 370.193 155.189" enable-background="new 0 0 370.193 155.189"
	 xml:space="preserve">
<g id="logo1">
	<g>
		<path fill="#FBFAF6" d="M137.704,44.408h23.6l-10.3,51.7h31.6l-3.7,18.3h-55.2L137.704,44.408z"/>
		<path fill="#FBFAF6" d="M215.203,103.801h-18.385c0.224,1.088,0.752,1.871,1.584,2.352s1.984,0.72,3.456,0.72
			c2.176,0,4.08-0.607,5.712-1.823l4.512,6.575c-3.199,2.177-7.023,3.265-11.471,3.265c-2.85,0-5.369-0.496-7.561-1.488
			c-2.192-0.992-3.889-2.4-5.088-4.225c-1.2-1.824-1.801-3.967-1.801-6.432c0-2.88,0.68-5.464,2.041-7.752
			c1.359-2.287,3.271-4.08,5.735-5.376s5.296-1.944,8.496-1.944c2.752,0,5.136,0.488,7.151,1.465
			c2.017,0.977,3.553,2.336,4.609,4.08c1.055,1.744,1.584,3.752,1.584,6.023C215.779,100.68,215.586,102.201,215.203,103.801z
			 M199.002,96c-0.783,0.624-1.367,1.48-1.752,2.568h8.593c0-1.088-0.353-1.944-1.056-2.568c-0.705-0.624-1.648-0.936-2.832-0.936
			C200.771,95.064,199.787,95.376,199.002,96z"/>
		<path fill="#FBFAF6" d="M250.146,88.152l-5.232,26.256H234.69l0.479-2.4c-1.984,1.92-4.352,2.881-7.104,2.881
			c-1.793,0-3.521-0.48-5.184-1.44c-1.664-0.96-3.017-2.359-4.057-4.2c-1.039-1.84-1.56-4.008-1.56-6.504
			c0-2.815,0.632-5.376,1.896-7.68c1.264-2.305,2.969-4.111,5.112-5.424s4.464-1.969,6.96-1.969c3.52,0,6.016,1.088,7.488,3.264
			l0.576-2.783H250.146z M229.291,105.217c0.688,0.752,1.639,1.127,2.855,1.127c1.408,0,2.552-0.543,3.432-1.631
			c0.881-1.088,1.32-2.545,1.32-4.369c0-1.248-0.344-2.247-1.031-3c-0.689-0.751-1.641-1.127-2.856-1.127
			c-1.409,0-2.552,0.544-3.433,1.631c-0.88,1.089-1.319,2.545-1.319,4.369C228.259,103.465,228.602,104.465,229.291,105.217z"/>
		<path fill="#FBFAF6" d="M273.811,87.672l-1.92,9.6c-0.801-0.127-1.584-0.191-2.353-0.191c-1.856,0-3.32,0.408-4.392,1.225
			c-1.072,0.815-1.801,2.136-2.184,3.959l-2.449,12.145h-10.848l5.232-26.256h10.224l-0.528,2.688
			C266.738,88.729,269.81,87.672,273.811,87.672z"/>
		<path fill="#FBFAF6" d="M301.193,89.977c1.712,1.535,2.568,3.744,2.568,6.623c0,1.089-0.112,2.193-0.336,3.313l-2.88,14.496
			h-10.849l2.641-13.2c0.127-0.768,0.191-1.296,0.191-1.584c0-1.888-0.911-2.832-2.735-2.832c-2.561,0-4.176,1.665-4.849,4.992
			l-2.543,12.624h-10.849l5.232-26.256h10.224l-0.527,2.64c1.119-1.056,2.359-1.839,3.72-2.352c1.359-0.512,2.743-0.769,4.151-0.769
			C297.201,87.672,299.482,88.44,301.193,89.977z"/>
		<path fill="#FBFAF6" d="M314.73,113.664c-2.193-1.008-3.873-2.439-5.041-4.296c-1.168-1.855-1.752-4.032-1.752-6.528
			c0-1.023,0.128-2.207,0.385-3.552l3.695-18.479h11.328l-3.648,18.287c-0.191,0.896-0.287,1.713-0.287,2.449
			c0,1.504,0.384,2.623,1.151,3.359c0.769,0.736,1.888,1.104,3.36,1.104c1.664,0,2.959-0.527,3.888-1.584
			c0.928-1.056,1.647-2.832,2.16-5.328l3.647-18.287h11.137l-3.792,18.959c-1.024,5.089-3.072,8.929-6.144,11.521
			c-3.072,2.593-7.169,3.888-12.289,3.888C319.521,115.176,316.922,114.672,314.73,113.664z"/>
		<path fill="#FBFAF6" d="M347.25,114.217c-2.112-0.448-3.761-1.024-4.944-1.729l3.744-7.393c1.247,0.769,2.695,1.361,4.344,1.776
			c1.647,0.417,3.24,0.624,4.776,0.624c2.143,0,3.216-0.416,3.216-1.248c0-0.352-0.28-0.615-0.841-0.792
			c-0.56-0.175-1.447-0.343-2.664-0.504c-1.888-0.288-3.487-0.632-4.799-1.032c-1.313-0.399-2.465-1.104-3.457-2.111
			s-1.487-2.408-1.487-4.2c0-3.231,1.376-5.696,4.128-7.392c2.752-1.696,6.304-2.545,10.656-2.545c1.92,0,3.768,0.168,5.544,0.504
			s3.352,0.824,4.728,1.465l-3.744,7.392c-2.271-1.312-4.88-1.968-7.824-1.968c-1.151,0-1.991,0.128-2.52,0.384
			c-0.527,0.257-0.792,0.56-0.792,0.912s0.271,0.616,0.815,0.792c0.545,0.176,1.473,0.377,2.785,0.6
			c1.855,0.288,3.432,0.633,4.728,1.032c1.296,0.4,2.432,1.104,3.408,2.112c0.976,1.008,1.464,2.393,1.464,4.152
			c0,2.111-0.648,3.911-1.943,5.399c-1.297,1.487-3.057,2.601-5.281,3.336s-4.712,1.104-7.463,1.104
			C351.553,114.889,349.361,114.664,347.25,114.217z"/>
	</g>
	<circle fill="#487AFF" cx="52.944" cy="102.425" r="52.752"/>
	<g>
		<circle fill="#FF6936" cx="115.504" cy="65.828" r="65.565"/>
		<path fill="none" d="M56.46,94.336c-6.984-14.465-8.175-30.226-4.498-44.663c-7.388,0.133-14.865,1.825-21.955,5.248
			C3.771,67.588-7.228,99.125,5.439,125.361c12.667,26.236,44.204,37.236,70.44,24.568c9.786-4.725,17.449-12.074,22.558-20.795
			C80.706,124.346,65.073,112.174,56.46,94.336z"/>
		<g>
			<defs>
				<path id="SVGID_1_" d="M98.438,129.135c8.588-14.661,9.953-33.195,2.01-49.646c-9.244-19.145-28.537-30.173-48.485-29.815
					c-3.678,14.437-2.486,30.198,4.498,44.663C65.073,112.174,80.706,124.346,98.438,129.135z"/>
			</defs>
			<clipPath id="SVGID_2_">
				<use xlink:href="#SVGID_1_"  overflow="visible"/>
			</clipPath>
			<g clip-path="url(#SVGID_2_)">
				
					<rect x="-10.589" y="50.334" transform="matrix(0.8524 -0.5229 0.5229 0.8524 -18.915 36.5884)" fill="#487AFF" width="131.873" height="2.925"/>
				
					<rect x="-7.445" y="55.458" transform="matrix(0.8524 -0.5229 0.5229 0.8524 -21.1303 38.9888)" fill="#487AFF" width="131.873" height="2.925"/>
				
					<rect x="-4.302" y="60.582" transform="matrix(0.8524 -0.5229 0.5229 0.8524 -23.3457 41.3886)" fill="#487AFF" width="131.873" height="2.924"/>
				
					<rect x="-1.158" y="65.705" transform="matrix(0.8524 -0.5229 0.5229 0.8524 -25.5609 43.7895)" fill="#487AFF" width="131.874" height="2.926"/>
				
					<rect x="1.985" y="70.828" transform="matrix(0.8524 -0.5229 0.5229 0.8524 -27.7758 46.1889)" fill="#487AFF" width="131.874" height="2.925"/>
				
					<rect x="5.128" y="75.952" transform="matrix(0.8524 -0.5229 0.5229 0.8524 -29.991 48.5882)" fill="#487AFF" width="131.873" height="2.926"/>
				
					<rect x="8.271" y="81.076" transform="matrix(0.8524 -0.5229 0.5229 0.8524 -32.2067 50.9893)" fill="#487AFF" width="131.874" height="2.926"/>
				
					<rect x="11.415" y="86.2" transform="matrix(0.8524 -0.5229 0.5229 0.8524 -34.4225 53.39)" fill="#487AFF" width="131.874" height="2.925"/>
				
					<rect x="14.659" y="91.489" transform="matrix(0.8524 -0.5229 0.5229 0.8524 -36.7088 55.8665)" fill="#487AFF" width="131.874" height="2.925"/>
				
					<rect x="17.815" y="96.632" transform="matrix(0.8524 -0.5229 0.5229 0.8524 -38.9327 58.2762)" fill="#487AFF" width="131.873" height="2.925"/>
				
					<rect x="20.971" y="101.777" transform="matrix(0.8524 -0.5229 0.5229 0.8524 -41.1568 60.6855)" fill="#487AFF" width="131.873" height="2.925"/>
				
					<rect x="24.127" y="106.922" transform="matrix(0.8524 -0.5229 0.5229 0.8524 -43.3814 63.0957)" fill="#487AFF" width="131.874" height="2.926"/>
				
					<rect x="27.308" y="112.108" transform="matrix(0.8524 -0.5229 0.5229 0.8524 -45.6229 65.5233)" fill="#487AFF" width="131.873" height="2.924"/>
				
					<rect x="30.451" y="117.23" transform="matrix(0.8524 -0.5229 0.5229 0.8524 -47.8383 67.9242)" fill="#487AFF" width="131.873" height="2.926"/>
				
					<rect x="33.595" y="122.355" transform="matrix(0.8524 -0.5229 0.5229 0.8524 -50.0538 70.3247)" fill="#487AFF" width="131.873" height="2.926"/>
			</g>
		</g>
	</g>
	<g>
		<defs>
			<circle id="SVGID_3_" cx="115.504" cy="65.828" r="65.565"/>
		</defs>
		<clipPath id="SVGID_4_">
			<use xlink:href="#SVGID_3_"  overflow="visible"/>
		</clipPath>
		<g clip-path="url(#SVGID_4_)">
			<path fill="#202125" d="M137.2,44h23.6l-10.3,51.7h31.6l-3.7,18.3h-55.2L137.2,44z"/>
		</g>
	</g>
</g>
</svg>
