<?xml version="1.0" encoding="utf-8"?>
<!-- Generator: Adobe Illustrator 16.0.0, SVG Export Plug-In . SVG Version: 6.00 Build 0)  -->
<!DOCTYPE svg PUBLIC "-//W3C//DTD SVG 1.1//EN" "http://www.w3.org/Graphics/SVG/1.1/DTD/svg11.dtd">
<svg version="1.1" id="레이어_1" xmlns="http://www.w3.org/2000/svg" xmlns:xlink="http://www.w3.org/1999/xlink" x="0px"
	 y="0px" width="306.325px" height="109px" viewBox="0 0 306.325 109" enable-background="new 0 0 306.325 109"
	 xml:space="preserve">
<g>
	<circle fill="#487AFF" cx="37.214" cy="71.965" r="37.026"/>
	<circle fill="#FF6936" cx="126.888" cy="45.888" r="8.837"/>
	<g>
		<circle fill="#FF6936" cx="81.125" cy="46.278" r="46.019"/>
		<path fill="none" d="M39.683,66.287c-4.902-10.152-5.739-21.215-3.157-31.348c-5.185,0.093-10.434,1.28-15.41,3.683
			C2.701,47.514-5.019,69.648,3.872,88.064c8.891,18.414,31.026,26.136,49.441,17.244c6.869-3.316,12.248-8.475,15.833-14.596
			C56.7,87.352,45.728,78.808,39.683,66.287z"/>
		<g>
			<defs>
				<path id="SVGID_1_" d="M69.146,90.713c6.028-10.291,6.986-23.3,1.411-34.847c-6.488-13.438-20.029-21.178-34.031-20.927
					c-2.582,10.133-1.745,21.195,3.157,31.348C45.728,78.808,56.7,87.352,69.146,90.713z"/>
			</defs>
			<clipPath id="SVGID_2_">
				<use xlink:href="#SVGID_1_"  overflow="visible"/>
			</clipPath>
			<g clip-path="url(#SVGID_2_)">
				
					<rect x="-7.379" y="35.403" transform="matrix(0.8524 -0.5229 0.5229 0.8524 -13.3071 25.7199)" fill="#487AFF" width="92.561" height="2.053"/>
				
					<rect x="-5.172" y="39" transform="matrix(0.8524 -0.5229 0.5229 0.8524 -14.8619 27.4047)" fill="#487AFF" width="92.56" height="2.053"/>
				
					<rect x="-2.965" y="42.595" transform="matrix(0.8524 -0.5229 0.5229 0.8524 -16.4165 29.0892)" fill="#487AFF" width="92.56" height="2.053"/>
				
					<rect x="-0.76" y="46.191" transform="matrix(0.8524 -0.5229 0.5229 0.8524 -17.9717 30.7747)" fill="#487AFF" width="92.561" height="2.054"/>
				
					<rect x="1.446" y="49.787" transform="matrix(0.8524 -0.5229 0.5229 0.8524 -19.5263 32.4587)" fill="#487AFF" width="92.561" height="2.054"/>
				
					<rect x="3.654" y="53.384" transform="matrix(0.8524 -0.5229 0.5229 0.8524 -21.0813 34.1427)" fill="#487AFF" width="92.56" height="2.053"/>
				
					<rect x="5.859" y="56.98" transform="matrix(0.8524 -0.5229 0.5229 0.8524 -22.6366 35.8283)" fill="#487AFF" width="92.56" height="2.054"/>
				
					<rect x="8.066" y="60.577" transform="matrix(0.8524 -0.5229 0.5229 0.8524 -24.1913 37.5124)" fill="#487AFF" width="92.561" height="2.053"/>
				
					<rect x="10.343" y="64.289" transform="matrix(0.8524 -0.5229 0.5229 0.8524 -25.7962 39.2511)" fill="#487AFF" width="92.561" height="2.053"/>
				
					<rect x="12.558" y="67.899" transform="matrix(0.8524 -0.5229 0.5229 0.8524 -27.3572 40.9428)" fill="#487AFF" width="92.561" height="2.053"/>
				
					<rect x="14.773" y="71.511" transform="matrix(0.8524 -0.5229 0.5229 0.8524 -28.9185 42.6338)" fill="#487AFF" width="92.562" height="2.053"/>
				
					<rect x="16.988" y="75.121" transform="matrix(0.8524 -0.5229 0.5229 0.8524 -30.4799 44.3256)" fill="#487AFF" width="92.561" height="2.054"/>
				
					<rect x="19.222" y="78.762" transform="matrix(0.8524 -0.5229 0.5229 0.8524 -32.0528 46.029)" fill="#487AFF" width="92.56" height="2.052"/>
				
					<rect x="21.427" y="82.356" transform="matrix(0.8524 -0.5229 0.5229 0.8524 -33.6079 47.7146)" fill="#487AFF" width="92.562" height="2.054"/>
				
					<rect x="23.634" y="85.953" transform="matrix(0.8524 -0.5229 0.5229 0.8524 -35.1631 49.3999)" fill="#487AFF" width="92.561" height="2.054"/>
			</g>
		</g>
	</g>
	<g>
		<defs>
			<circle id="SVGID_3_" cx="81.42" cy="46.744" r="46.489"/>
		</defs>
		<clipPath id="SVGID_4_">
			<use xlink:href="#SVGID_3_"  overflow="visible"/>
		</clipPath>
		<g display="none" clip-path="url(#SVGID_4_)">
			<path display="inline" fill="#202125" d="M96.723,31.084h16.857l-7.357,36.929h22.572l-2.642,13.071H86.723L96.723,31.084z"/>
		</g>
		<g display="none" clip-path="url(#SVGID_4_)">
			<path display="inline" fill="#202125" d="M99.647,29h16.52l-7.21,36.189h22.12L128.487,78h-38.64L99.647,29z"/>
		</g>
		<circle clip-path="url(#SVGID_4_)" fill="#202125" cx="126.888" cy="45.888" r="8.837"/>
		<polyline clip-path="url(#SVGID_4_)" fill="none" stroke="#202125" stroke-width="12" stroke-miterlimit="10" points="
			77.881,16.461 103.492,29.406 83.812,47.08 109.407,59.945 89.479,76.348 		"/>
	</g>
	<rect x="143" y="15" fill="#FBFAF6" width="14" height="62"/>
	<polyline fill="none" stroke="#FBFAF6" stroke-width="14" stroke-miterlimit="10" points="172.388,34.336 179.458,56.842 
		202.893,50.219 	"/>
	<circle fill="#FF6936" cx="283.976" cy="48.145" r="8.546"/>
	<rect x="215" y="20" fill="#FBFAF6" width="14" height="59"/>
	<circle fill="#FF6936" cx="202.849" cy="33.695" r="6.382"/>
	<rect x="239" y="64" fill="#FBFAF6" width="63" height="14"/>
	<polygon fill="#FBFAF6" points="259,59 242,59 267,17 284,17 	"/>
</g>
</svg>
