<?xml version="1.0" encoding="utf-8"?>
<!-- Generator: Adobe Illustrator 16.0.0, SVG Export Plug-In . SVG Version: 6.00 Build 0)  -->
<!DOCTYPE svg PUBLIC "-//W3C//DTD SVG 1.1//EN" "http://www.w3.org/Graphics/SVG/1.1/DTD/svg11.dtd">
<svg version="1.1" id="레이어_1" xmlns="http://www.w3.org/2000/svg" xmlns:xlink="http://www.w3.org/1999/xlink" x="0px"
	 y="0px" width="93.307px" height="82.489px" viewBox="0 0 93.307 82.489" enable-background="new 0 0 93.307 82.489"
	 xml:space="preserve">
<g>
	<polygon fill="#FF6936" points="46.8,0.328 46.8,14.661 67.177,14.776 61.328,7.553 67.177,0.328 	"/>
	<polygon fill="#ECE6F2" points="0,82.489 93.307,82.489 72.832,34.633 63.18,36.778 46.8,14.666 19.988,55.084 13.016,53.721 	"/>
	<polygon fill="#98BBF9" points="0,82.489 46.654,82.489 46.654,61.689 25.807,46.313 19.988,55.084 13.016,53.721 	"/>
	<polygon fill="#709BFC" points="46.361,82.489 72.735,82.489 66.69,52.984 55.77,51.813 46.41,61.772 	"/>
	<polygon fill="#487AFF" points="72.735,82.489 93.307,82.489 76.732,43.747 66.593,52.984 	"/>
	<polygon fill="#FFF5F5" points="46.8,14.666 46.41,61.511 25.807,46.313 	"/>
</g>
</svg>
