<?xml version="1.0" encoding="utf-8"?>
<!-- Generator: Adobe Illustrator 16.0.0, SVG Export Plug-In . SVG Version: 6.00 Build 0)  -->
<!DOCTYPE svg PUBLIC "-//W3C//DTD SVG 1.1//EN" "http://www.w3.org/Graphics/SVG/1.1/DTD/svg11.dtd">
<svg version="1.1" id="레이어_1" xmlns="http://www.w3.org/2000/svg" xmlns:xlink="http://www.w3.org/1999/xlink" x="0px"
	 y="0px" width="306.325px" height="109px" viewBox="0 0 306.325 109" enable-background="new 0 0 306.325 109"
	 xml:space="preserve">
<g>
	<circle fill="#487AFF" cx="37.214" cy="71.965" r="37.026"/>
	<g>
		<path fill="#FBFAF6" d="M99.646,29h16.52l-7.21,36.189h22.12L128.486,78h-38.64L99.646,29z"/>
		<path fill="#FBFAF6" d="M161.021,68.055h-17.235c0.209,1.021,0.705,1.756,1.485,2.205c0.78,0.45,1.86,0.676,3.24,0.676
			c2.04,0,3.825-0.57,5.355-1.711l4.229,6.166c-3,2.04-6.585,3.06-10.755,3.06c-2.67,0-5.033-0.465-7.087-1.396
			c-2.055-0.93-3.645-2.25-4.77-3.959c-1.125-1.711-1.688-3.721-1.688-6.031c0-2.699,0.637-5.121,1.913-7.268
			c1.275-2.145,3.067-3.824,5.377-5.04c2.31-1.215,4.965-1.822,7.965-1.822c2.58,0,4.815,0.458,6.705,1.373
			c1.891,0.915,3.33,2.19,4.32,3.825s1.484,3.518,1.484,5.646C161.561,65.13,161.381,66.555,161.021,68.055z M145.833,60.742
			c-0.735,0.586-1.283,1.389-1.643,2.408h8.055c0-1.02-0.331-1.822-0.99-2.408c-0.66-0.584-1.545-0.877-2.655-0.877
			C147.491,59.865,146.568,60.158,145.833,60.742z"/>
		<path fill="#FBFAF6" d="M193.781,53.385L188.875,78h-9.584l0.449-2.25c-1.859,1.8-4.08,2.7-6.66,2.7c-1.68,0-3.3-0.45-4.859-1.351
			c-1.561-0.899-2.828-2.211-3.803-3.938c-0.975-1.725-1.463-3.758-1.463-6.098c0-2.639,0.593-5.039,1.778-7.199
			c1.185-2.16,2.782-3.855,4.792-5.085c2.01-1.229,4.186-1.845,6.525-1.845c3.3,0,5.64,1.02,7.02,3.06l0.541-2.61H193.781z
			 M174.229,69.383c0.645,0.705,1.537,1.057,2.678,1.057c1.319,0,2.392-0.51,3.217-1.529c0.824-1.02,1.238-2.385,1.238-4.096
			c0-1.17-0.323-2.107-0.969-2.813c-0.645-0.704-1.537-1.057-2.677-1.057c-1.321,0-2.394,0.51-3.218,1.529
			c-0.825,1.021-1.237,2.385-1.237,4.096C173.261,67.74,173.582,68.678,174.229,69.383z"/>
		<path fill="#FBFAF6" d="M215.965,52.935l-1.8,9c-0.75-0.12-1.485-0.181-2.205-0.181c-1.74,0-3.112,0.383-4.117,1.147
			c-1.005,0.766-1.688,2.002-2.048,3.713L203.5,78h-10.17l4.905-24.615h9.585l-0.495,2.52
			C209.334,53.925,212.215,52.935,215.965,52.935z"/>
		<path fill="#FBFAF6" d="M241.638,55.096c1.604,1.439,2.407,3.51,2.407,6.209c0,1.021-0.105,2.056-0.314,3.105L241.03,78h-10.17
			l2.475-12.375c0.12-0.721,0.181-1.215,0.181-1.484c0-1.771-0.855-2.656-2.565-2.656c-2.4,0-3.915,1.561-4.545,4.681L224.02,78
			h-10.17l4.906-24.615h9.584l-0.494,2.475c1.049-0.989,2.211-1.724,3.486-2.205c1.275-0.479,2.572-0.72,3.893-0.72
			C237.895,52.935,240.032,53.655,241.638,55.096z"/>
		<path fill="#FBFAF6" d="M254.328,77.303c-2.056-0.945-3.631-2.287-4.726-4.027c-1.096-1.74-1.643-3.78-1.643-6.121
			c0-0.959,0.12-2.069,0.36-3.329l3.465-17.325h10.62l-3.421,17.145c-0.18,0.841-0.27,1.605-0.27,2.295
			c0,1.411,0.36,2.461,1.08,3.15c0.721,0.69,1.77,1.035,3.15,1.035c1.559,0,2.774-0.495,3.645-1.484
			c0.87-0.99,1.545-2.656,2.025-4.996l3.42-17.145h10.439l-3.555,17.775c-0.961,4.77-2.88,8.369-5.76,10.8
			c-2.88,2.43-6.721,3.646-11.52,3.646C258.82,78.721,256.382,78.248,254.328,77.303z"/>
		<path fill="#FBFAF6" d="M284.814,77.82c-1.979-0.42-3.525-0.96-4.635-1.62l3.51-6.931c1.17,0.721,2.527,1.275,4.072,1.666
			c1.545,0.39,3.038,0.584,4.479,0.584c2.01,0,3.015-0.389,3.015-1.17c0-0.33-0.263-0.576-0.788-0.742
			c-0.525-0.164-1.357-0.322-2.497-0.473c-1.771-0.27-3.271-0.592-4.5-0.967c-1.23-0.375-2.311-1.035-3.239-1.98
			c-0.931-0.945-1.396-2.257-1.396-3.938c0-3.029,1.29-5.34,3.87-6.93s5.91-2.385,9.99-2.385c1.799,0,3.532,0.157,5.197,0.473
			c1.664,0.315,3.143,0.772,4.432,1.372l-3.51,6.93c-2.13-1.229-4.574-1.845-7.334-1.845c-1.08,0-1.868,0.12-2.363,0.359
			c-0.494,0.24-0.742,0.525-0.742,0.855s0.254,0.578,0.765,0.742c0.51,0.166,1.38,0.354,2.61,0.563
			c1.739,0.27,3.217,0.593,4.432,0.968c1.216,0.376,2.28,1.035,3.195,1.979c0.915,0.945,1.373,2.244,1.373,3.893
			c0,1.98-0.607,3.668-1.822,5.063c-1.215,1.396-2.865,2.438-4.95,3.128s-4.418,1.035-6.997,1.035
			C288.85,78.45,286.795,78.24,284.814,77.82z"/>
	</g>
	<g>
		<circle fill="#FF6936" cx="81.125" cy="46.278" r="46.019"/>
		<path fill="none" d="M39.683,66.287c-4.902-10.152-5.739-21.215-3.157-31.348c-5.185,0.093-10.434,1.28-15.41,3.683
			C2.701,47.514-5.019,69.648,3.872,88.064c8.891,18.414,31.026,26.136,49.441,17.244c6.869-3.316,12.248-8.475,15.833-14.596
			C56.7,87.352,45.728,78.808,39.683,66.287z"/>
		<g>
			<defs>
				<path id="SVGID_1_" d="M69.146,90.713c6.028-10.291,6.986-23.3,1.411-34.847c-6.488-13.438-20.029-21.178-34.031-20.927
					c-2.582,10.133-1.745,21.195,3.157,31.348C45.728,78.808,56.7,87.352,69.146,90.713z"/>
			</defs>
			<clipPath id="SVGID_2_">
				<use xlink:href="#SVGID_1_"  overflow="visible"/>
			</clipPath>
			<g clip-path="url(#SVGID_2_)">
				
					<rect x="-7.379" y="35.403" transform="matrix(0.8524 -0.5229 0.5229 0.8524 -13.3071 25.7199)" fill="#487AFF" width="92.561" height="2.053"/>
				
					<rect x="-5.172" y="39" transform="matrix(0.8524 -0.5229 0.5229 0.8524 -14.8619 27.4047)" fill="#487AFF" width="92.56" height="2.053"/>
				
					<rect x="-2.965" y="42.595" transform="matrix(0.8524 -0.5229 0.5229 0.8524 -16.4165 29.0892)" fill="#487AFF" width="92.56" height="2.053"/>
				
					<rect x="-0.76" y="46.191" transform="matrix(0.8524 -0.5229 0.5229 0.8524 -17.9717 30.7747)" fill="#487AFF" width="92.561" height="2.054"/>
				
					<rect x="1.446" y="49.787" transform="matrix(0.8524 -0.5229 0.5229 0.8524 -19.5263 32.4587)" fill="#487AFF" width="92.561" height="2.054"/>
				
					<rect x="3.654" y="53.384" transform="matrix(0.8524 -0.5229 0.5229 0.8524 -21.0813 34.1427)" fill="#487AFF" width="92.56" height="2.053"/>
				
					<rect x="5.859" y="56.98" transform="matrix(0.8524 -0.5229 0.5229 0.8524 -22.6366 35.8283)" fill="#487AFF" width="92.56" height="2.054"/>
				
					<rect x="8.066" y="60.577" transform="matrix(0.8524 -0.5229 0.5229 0.8524 -24.1913 37.5124)" fill="#487AFF" width="92.561" height="2.053"/>
				
					<rect x="10.343" y="64.289" transform="matrix(0.8524 -0.5229 0.5229 0.8524 -25.7962 39.2511)" fill="#487AFF" width="92.561" height="2.053"/>
				
					<rect x="12.558" y="67.899" transform="matrix(0.8524 -0.5229 0.5229 0.8524 -27.3572 40.9428)" fill="#487AFF" width="92.561" height="2.053"/>
				
					<rect x="14.773" y="71.511" transform="matrix(0.8524 -0.5229 0.5229 0.8524 -28.9185 42.6338)" fill="#487AFF" width="92.562" height="2.053"/>
				
					<rect x="16.988" y="75.121" transform="matrix(0.8524 -0.5229 0.5229 0.8524 -30.4799 44.3256)" fill="#487AFF" width="92.561" height="2.054"/>
				
					<rect x="19.222" y="78.762" transform="matrix(0.8524 -0.5229 0.5229 0.8524 -32.0528 46.029)" fill="#487AFF" width="92.56" height="2.052"/>
				
					<rect x="21.427" y="82.356" transform="matrix(0.8524 -0.5229 0.5229 0.8524 -33.6079 47.7146)" fill="#487AFF" width="92.562" height="2.054"/>
				
					<rect x="23.634" y="85.953" transform="matrix(0.8524 -0.5229 0.5229 0.8524 -35.1631 49.3999)" fill="#487AFF" width="92.561" height="2.054"/>
			</g>
		</g>
	</g>
	<g>
		<defs>
			<circle id="SVGID_3_" cx="81.42" cy="46.744" r="46.489"/>
		</defs>
		<clipPath id="SVGID_4_">
			<use xlink:href="#SVGID_3_"  overflow="visible"/>
		</clipPath>
		<g clip-path="url(#SVGID_4_)">
			<path fill="#202125" d="M99.647,29h16.52l-7.21,36.189h22.12L128.487,78h-38.64L99.647,29z"/>
		</g>
	</g>
</g>
</svg>
