<?xml version="1.0" encoding="utf-8"?>
<!-- Generator: Adobe Illustrator 16.0.0, SVG Export Plug-In . SVG Version: 6.00 Build 0)  -->
<!DOCTYPE svg PUBLIC "-//W3C//DTD SVG 1.1//EN" "http://www.w3.org/Graphics/SVG/1.1/DTD/svg11.dtd">
<svg version="1.1" id="레이어_1" xmlns="http://www.w3.org/2000/svg" xmlns:xlink="http://www.w3.org/1999/xlink" x="0px"
	 y="0px" width="317.628px" height="82.489px" viewBox="0 0 317.628 82.489" enable-background="new 0 0 317.628 82.489"
	 xml:space="preserve">
<g>
	<polygon fill="#FF6936" points="46.8,0.328 46.8,14.661 67.177,14.776 61.328,7.553 67.177,0.328 	"/>
	<polygon fill="#ECE6F2" points="0,82.489 93.307,82.489 72.832,34.633 63.18,36.778 46.8,14.666 19.988,55.084 13.016,53.721 	"/>
	<polygon fill="#98BBF9" points="0,82.489 46.654,82.489 46.654,61.689 25.807,46.313 19.988,55.084 13.016,53.721 	"/>
	<polygon fill="#709BFC" points="46.361,82.489 72.735,82.489 66.69,52.984 55.77,51.813 46.41,61.772 	"/>
	<polygon fill="#487AFF" points="72.735,82.489 93.307,82.489 76.732,43.747 66.593,52.984 	"/>
	<polygon fill="#FFF5F5" points="46.8,14.666 46.41,61.511 25.807,46.313 	"/>
</g>
<g>
	<g>
		<path fill="#FF6936" d="M108.634,31.552h11.328l-4.944,24.815h15.168l-1.776,8.784h-26.496L108.634,31.552z"/>
		<path fill="#FF6936" d="M161.433,54.543h-18.384c0.223,1.089,0.751,1.872,1.584,2.353c0.832,0.479,1.983,0.72,3.456,0.72
			c2.176,0,4.08-0.607,5.712-1.824l4.512,6.576c-3.2,2.177-7.024,3.265-11.472,3.265c-2.849,0-5.369-0.496-7.56-1.488
			c-2.192-0.991-3.888-2.4-5.088-4.225c-1.2-1.823-1.8-3.967-1.8-6.432c0-2.88,0.68-5.464,2.04-7.752
			c1.36-2.287,3.271-4.08,5.736-5.376c2.464-1.296,5.296-1.944,8.496-1.944c2.752,0,5.136,0.488,7.152,1.464
			c2.016,0.977,3.552,2.337,4.608,4.08c1.056,1.745,1.584,3.753,1.584,6.024C162.009,51.424,161.817,52.943,161.433,54.543z
			 M145.233,46.743c-0.784,0.624-1.368,1.48-1.752,2.568h8.592c0-1.088-0.353-1.944-1.056-2.568
			c-0.704-0.624-1.648-0.936-2.832-0.936C147.001,45.808,146.017,46.119,145.233,46.743z"/>
		<path fill="#FF6936" d="M196.377,38.896l-5.232,26.256h-10.224l0.48-2.4c-1.984,1.92-4.352,2.881-7.104,2.881
			c-1.792,0-3.521-0.48-5.184-1.44c-1.665-0.96-3.017-2.359-4.056-4.2c-1.04-1.84-1.56-4.008-1.56-6.504
			c0-2.815,0.631-5.376,1.896-7.68c1.264-2.305,2.968-4.111,5.112-5.424c2.144-1.313,4.464-1.969,6.96-1.969
			c3.52,0,6.016,1.089,7.488,3.265l0.576-2.784H196.377z M175.521,55.959c0.688,0.753,1.64,1.128,2.856,1.128
			c1.408,0,2.552-0.543,3.432-1.632c0.88-1.087,1.32-2.544,1.32-4.368c0-1.247-0.344-2.247-1.032-3
			c-0.688-0.751-1.64-1.128-2.856-1.128c-1.409,0-2.552,0.545-3.432,1.633c-0.88,1.088-1.32,2.544-1.32,4.367
			C174.489,54.207,174.833,55.208,175.521,55.959z"/>
		<path fill="#FF6936" d="M220.041,38.415l-1.92,9.601c-0.8-0.128-1.584-0.192-2.352-0.192c-1.856,0-3.32,0.408-4.392,1.225
			c-1.073,0.815-1.8,2.136-2.184,3.96l-2.448,12.144h-10.848l5.232-26.256h10.224l-0.528,2.688
			C212.969,39.472,216.041,38.415,220.041,38.415z"/>
		<path fill="#FF6936" d="M247.425,40.72c1.711,1.535,2.568,3.743,2.568,6.624c0,1.088-0.112,2.191-0.336,3.312l-2.88,14.496
			h-10.848l2.64-13.2c0.127-0.768,0.192-1.296,0.192-1.584c0-1.888-0.912-2.832-2.736-2.832c-2.561,0-4.176,1.664-4.848,4.992
			l-2.544,12.624h-10.848l5.232-26.256h10.224l-0.528,2.64c1.12-1.056,2.359-1.84,3.72-2.352c1.359-0.512,2.743-0.769,4.152-0.769
			C243.433,38.415,245.713,39.184,247.425,40.72z"/>
		<path fill="#FF6936" d="M260.96,64.407c-2.192-1.008-3.873-2.439-5.04-4.296c-1.168-1.855-1.752-4.032-1.752-6.528
			c0-1.023,0.127-2.208,0.384-3.552l3.696-18.479h11.328l-3.648,18.288c-0.192,0.896-0.288,1.712-0.288,2.447
			c0,1.505,0.384,2.624,1.152,3.36c0.768,0.736,1.888,1.104,3.36,1.104c1.664,0,2.959-0.527,3.888-1.584
			c0.928-1.056,1.648-2.832,2.16-5.327l3.648-18.288h11.136l-3.792,18.96c-1.025,5.088-3.072,8.928-6.144,11.52
			c-3.072,2.592-7.168,3.888-12.288,3.888C265.752,65.919,263.152,65.415,260.96,64.407z"/>
		<path fill="#FF6936" d="M293.48,64.959c-2.112-0.447-3.76-1.023-4.944-1.728l3.744-7.392c1.248,0.768,2.695,1.36,4.344,1.775
			c1.648,0.416,3.24,0.624,4.776,0.624c2.144,0,3.216-0.415,3.216-1.248c0-0.352-0.281-0.615-0.84-0.792
			c-0.56-0.176-1.448-0.344-2.664-0.504c-1.888-0.288-3.488-0.632-4.8-1.032c-1.313-0.399-2.464-1.104-3.456-2.111
			c-0.992-1.009-1.488-2.408-1.488-4.2c0-3.232,1.375-5.695,4.128-7.393c2.751-1.695,6.304-2.544,10.656-2.544
			c1.92,0,3.768,0.168,5.544,0.504c1.776,0.336,3.352,0.824,4.728,1.465l-3.744,7.392c-2.272-1.312-4.88-1.968-7.824-1.968
			c-1.152,0-1.992,0.128-2.52,0.384c-0.528,0.257-0.792,0.561-0.792,0.912c0,0.353,0.271,0.616,0.816,0.792
			c0.544,0.176,1.472,0.376,2.784,0.6c1.855,0.288,3.432,0.633,4.728,1.032c1.296,0.4,2.432,1.104,3.408,2.112
			c0.976,1.008,1.464,2.393,1.464,4.151c0,2.112-0.648,3.912-1.944,5.4c-1.296,1.488-3.057,2.601-5.28,3.336
			c-2.225,0.735-4.712,1.104-7.464,1.104C297.784,65.632,295.592,65.407,293.48,64.959z"/>
	</g>
</g>
<g>
	<path fill="#FBFAF6" d="M106.634,30.552h11.328l-4.944,24.815h15.168l-1.776,8.784H99.914L106.634,30.552z"/>
	<path fill="#FBFAF6" d="M159.433,53.543h-18.384c0.223,1.089,0.751,1.872,1.584,2.353c0.832,0.479,1.983,0.72,3.456,0.72
		c2.176,0,4.08-0.607,5.712-1.824l4.512,6.576c-3.2,2.177-7.024,3.265-11.472,3.265c-2.849,0-5.369-0.496-7.56-1.488
		c-2.192-0.991-3.888-2.4-5.088-4.225c-1.2-1.823-1.8-3.967-1.8-6.432c0-2.88,0.68-5.464,2.04-7.752
		c1.36-2.287,3.271-4.08,5.736-5.376c2.464-1.296,5.296-1.944,8.496-1.944c2.752,0,5.136,0.488,7.152,1.464
		c2.016,0.977,3.552,2.337,4.608,4.08c1.056,1.745,1.584,3.753,1.584,6.024C160.009,50.424,159.817,51.943,159.433,53.543z
		 M143.233,45.743c-0.784,0.624-1.368,1.48-1.752,2.568h8.592c0-1.088-0.353-1.944-1.056-2.568
		c-0.704-0.624-1.648-0.936-2.832-0.936C145.001,44.808,144.017,45.119,143.233,45.743z"/>
	<path fill="#FBFAF6" d="M194.377,37.896l-5.232,26.256h-10.224l0.48-2.4c-1.984,1.92-4.352,2.881-7.104,2.881
		c-1.792,0-3.521-0.48-5.184-1.44c-1.665-0.96-3.017-2.359-4.056-4.2c-1.04-1.84-1.56-4.008-1.56-6.504
		c0-2.815,0.631-5.376,1.896-7.68c1.264-2.305,2.968-4.111,5.112-5.424c2.144-1.313,4.464-1.969,6.96-1.969
		c3.52,0,6.016,1.089,7.488,3.265l0.576-2.784H194.377z M173.521,54.959c0.688,0.753,1.64,1.128,2.856,1.128
		c1.408,0,2.552-0.543,3.432-1.632c0.88-1.087,1.32-2.544,1.32-4.368c0-1.247-0.344-2.247-1.032-3
		c-0.688-0.751-1.64-1.128-2.856-1.128c-1.409,0-2.552,0.545-3.432,1.633c-0.88,1.088-1.32,2.544-1.32,4.367
		C172.489,53.207,172.833,54.208,173.521,54.959z"/>
	<path fill="#FBFAF6" d="M218.041,37.415l-1.92,9.601c-0.8-0.128-1.584-0.192-2.352-0.192c-1.856,0-3.32,0.408-4.392,1.225
		c-1.073,0.815-1.8,2.136-2.184,3.96l-2.448,12.144h-10.848l5.232-26.256h10.224l-0.528,2.688
		C210.969,38.472,214.041,37.415,218.041,37.415z"/>
	<path fill="#FBFAF6" d="M245.425,39.72c1.711,1.535,2.568,3.743,2.568,6.624c0,1.088-0.112,2.191-0.336,3.312l-2.88,14.496h-10.848
		l2.64-13.2c0.127-0.768,0.192-1.296,0.192-1.584c0-1.888-0.912-2.832-2.736-2.832c-2.561,0-4.176,1.664-4.848,4.992l-2.544,12.624
		h-10.848l5.232-26.256h10.224l-0.528,2.64c1.12-1.056,2.359-1.84,3.72-2.352c1.359-0.512,2.743-0.769,4.152-0.769
		C241.433,37.415,243.713,38.184,245.425,39.72z"/>
	<path fill="#FBFAF6" d="M258.96,63.407c-2.192-1.008-3.873-2.439-5.04-4.296c-1.168-1.855-1.752-4.032-1.752-6.528
		c0-1.023,0.127-2.208,0.384-3.552l3.696-18.479h11.328l-3.648,18.288c-0.192,0.896-0.288,1.712-0.288,2.447
		c0,1.505,0.384,2.624,1.152,3.36c0.768,0.736,1.888,1.104,3.36,1.104c1.664,0,2.959-0.527,3.888-1.584
		c0.928-1.056,1.648-2.832,2.16-5.327l3.648-18.288h11.136l-3.792,18.96c-1.025,5.088-3.072,8.928-6.144,11.52
		c-3.072,2.592-7.168,3.888-12.288,3.888C263.752,64.919,261.152,64.415,258.96,63.407z"/>
	<path fill="#FBFAF6" d="M291.48,63.959c-2.112-0.447-3.76-1.023-4.944-1.728l3.744-7.392c1.248,0.768,2.695,1.36,4.344,1.775
		c1.648,0.416,3.24,0.624,4.776,0.624c2.144,0,3.216-0.415,3.216-1.248c0-0.352-0.281-0.615-0.84-0.792
		c-0.56-0.176-1.448-0.344-2.664-0.504c-1.888-0.288-3.488-0.632-4.8-1.032c-1.313-0.399-2.464-1.104-3.456-2.111
		c-0.992-1.009-1.488-2.408-1.488-4.2c0-3.232,1.375-5.695,4.128-7.393c2.751-1.695,6.304-2.544,10.656-2.544
		c1.92,0,3.768,0.168,5.544,0.504c1.776,0.336,3.352,0.824,4.728,1.465l-3.744,7.392c-2.272-1.312-4.88-1.968-7.824-1.968
		c-1.152,0-1.992,0.128-2.52,0.384c-0.528,0.257-0.792,0.561-0.792,0.912c0,0.353,0.271,0.616,0.816,0.792
		c0.544,0.176,1.472,0.376,2.784,0.6c1.855,0.288,3.432,0.633,4.728,1.032c1.296,0.4,2.432,1.104,3.408,2.112
		c0.976,1.008,1.464,2.393,1.464,4.151c0,2.112-0.648,3.912-1.944,5.4c-1.296,1.488-3.057,2.601-5.28,3.336
		c-2.225,0.735-4.712,1.104-7.464,1.104C295.784,64.632,293.592,64.407,291.48,63.959z"/>
</g>
</svg>
