<?xml version="1.0" encoding="utf-8"?>
<!-- Generator: Adobe Illustrator 16.0.0, SVG Export Plug-In . SVG Version: 6.00 Build 0)  -->
<!DOCTYPE svg PUBLIC "-//W3C//DTD SVG 1.1//EN" "http://www.w3.org/Graphics/SVG/1.1/DTD/svg11.dtd">
<svg version="1.1" id="레이어_1" xmlns="http://www.w3.org/2000/svg" xmlns:xlink="http://www.w3.org/1999/xlink" x="0px"
	 y="0px" width="370.193px" height="155.189px" viewBox="0 0 370.193 155.189" enable-background="new 0 0 370.193 155.189"
	 xml:space="preserve">
<g>
	<rect x="192" y="51" fill="#FBFAF6" width="14" height="68"/>
	<circle fill="#487AFF" cx="52.944" cy="102.425" r="52.752"/>
	<g>
		<circle fill="#FF6936" cx="115.504" cy="65.828" r="65.565"/>
		<path fill="none" d="M56.46,94.336c-6.984-14.465-8.175-30.226-4.498-44.663c-7.388,0.133-14.865,1.825-21.955,5.248
			C3.771,67.588-7.228,99.125,5.439,125.361c12.667,26.236,44.204,37.236,70.44,24.568c9.786-4.725,17.449-12.074,22.558-20.795
			C80.706,124.346,65.073,112.174,56.46,94.336z"/>
		<g>
			<defs>
				<path id="SVGID_1_" d="M98.438,129.135c8.588-14.661,9.953-33.195,2.01-49.646c-9.244-19.145-28.537-30.173-48.485-29.815
					c-3.678,14.437-2.486,30.198,4.498,44.663C65.073,112.174,80.706,124.346,98.438,129.135z"/>
			</defs>
			<clipPath id="SVGID_2_">
				<use xlink:href="#SVGID_1_"  overflow="visible"/>
			</clipPath>
			<g clip-path="url(#SVGID_2_)">
				
					<rect x="-10.589" y="50.334" transform="matrix(0.8524 -0.5229 0.5229 0.8524 -18.915 36.5884)" fill="#487AFF" width="131.873" height="2.925"/>
				
					<rect x="-7.445" y="55.458" transform="matrix(0.8524 -0.5229 0.5229 0.8524 -21.1303 38.9888)" fill="#487AFF" width="131.873" height="2.925"/>
				
					<rect x="-4.302" y="60.582" transform="matrix(0.8524 -0.5229 0.5229 0.8524 -23.3457 41.3886)" fill="#487AFF" width="131.873" height="2.924"/>
				
					<rect x="-1.158" y="65.705" transform="matrix(0.8524 -0.5229 0.5229 0.8524 -25.5609 43.7895)" fill="#487AFF" width="131.874" height="2.926"/>
				
					<rect x="1.985" y="70.828" transform="matrix(0.8524 -0.5229 0.5229 0.8524 -27.7758 46.1889)" fill="#487AFF" width="131.874" height="2.925"/>
				
					<rect x="5.128" y="75.952" transform="matrix(0.8524 -0.5229 0.5229 0.8524 -29.991 48.5882)" fill="#487AFF" width="131.873" height="2.926"/>
				
					<rect x="8.271" y="81.076" transform="matrix(0.8524 -0.5229 0.5229 0.8524 -32.2067 50.9893)" fill="#487AFF" width="131.874" height="2.926"/>
				
					<rect x="11.415" y="86.2" transform="matrix(0.8524 -0.5229 0.5229 0.8524 -34.4225 53.39)" fill="#487AFF" width="131.874" height="2.925"/>
				
					<rect x="14.659" y="91.489" transform="matrix(0.8524 -0.5229 0.5229 0.8524 -36.7088 55.8665)" fill="#487AFF" width="131.874" height="2.925"/>
				
					<rect x="17.815" y="96.632" transform="matrix(0.8524 -0.5229 0.5229 0.8524 -38.9327 58.2762)" fill="#487AFF" width="131.873" height="2.925"/>
				
					<rect x="20.971" y="101.777" transform="matrix(0.8524 -0.5229 0.5229 0.8524 -41.1568 60.6855)" fill="#487AFF" width="131.873" height="2.925"/>
				
					<rect x="24.127" y="106.922" transform="matrix(0.8524 -0.5229 0.5229 0.8524 -43.3814 63.0957)" fill="#487AFF" width="131.874" height="2.926"/>
				
					<rect x="27.308" y="112.108" transform="matrix(0.8524 -0.5229 0.5229 0.8524 -45.6229 65.5233)" fill="#487AFF" width="131.873" height="2.924"/>
				
					<rect x="30.451" y="117.23" transform="matrix(0.8524 -0.5229 0.5229 0.8524 -47.8383 67.9242)" fill="#487AFF" width="131.873" height="2.926"/>
				
					<rect x="33.595" y="122.355" transform="matrix(0.8524 -0.5229 0.5229 0.8524 -50.0538 70.3247)" fill="#487AFF" width="131.873" height="2.926"/>
			</g>
		</g>
	</g>
	<circle fill="#FF6936" cx="177.888" cy="85.888" r="8.837"/>
	<polyline fill="none" stroke="#FBFAF6" stroke-width="14" stroke-miterlimit="10" points="221.388,74.336 228.458,96.842 
		251.893,90.219 	"/>
	<circle fill="#FF6936" cx="332.976" cy="88.145" r="8.546"/>
	<rect x="264" y="55" fill="#FBFAF6" width="14" height="64"/>
	<circle fill="#FF6936" cx="251.849" cy="73.695" r="6.382"/>
	<rect x="288" y="104" fill="#FBFAF6" width="63" height="14"/>
	<g>
		<defs>
			<circle id="SVGID_3_" cx="115.504" cy="65.828" r="65.565"/>
		</defs>
		<clipPath id="SVGID_4_">
			<use xlink:href="#SVGID_3_"  overflow="visible"/>
		</clipPath>
		<polyline clip-path="url(#SVGID_4_)" fill="none" stroke="#202125" stroke-width="16" stroke-miterlimit="10" points="130,42.971 
			157.486,64.271 130,80.763 157.486,101.967 130,116.888 		"/>
		<circle clip-path="url(#SVGID_4_)" fill="#202125" cx="177.888" cy="85.888" r="8.837"/>
	</g>
	<polygon fill="#FBFAF6" points="308,99 291,99 316,57 333,57 	"/>
</g>
</svg>
