<?xml version="1.0" encoding="utf-8"?>
<!-- Generator: Adobe Illustrator 16.0.0, SVG Export Plug-In . SVG Version: 6.00 Build 0)  -->
<!DOCTYPE svg PUBLIC "-//W3C//DTD SVG 1.1//EN" "http://www.w3.org/Graphics/SVG/1.1/DTD/svg11.dtd">
<svg version="1.1" id="레이어_1" xmlns="http://www.w3.org/2000/svg" xmlns:xlink="http://www.w3.org/1999/xlink" x="0px"
	 y="0px" width="331.836px" height="62.956px" viewBox="0 0 331.836 62.956" enable-background="new 0 0 331.836 62.956"
	 xml:space="preserve">
<g>
	<g>
		<polygon fill="#9848FF" points="85.153,20.379 74.46,38.117 86.726,59 107.484,59 		"/>
		<polygon fill="#487AFF" points="27.791,9.735 17.673,27.489 35.226,58.5 55.355,58.5 		"/>
		<polygon fill="#FF6936" points="20.758,58.5 0,58.5 33.339,0 54.097,0 		"/>
		<polygon fill="#FF6936" points="55.984,58.5 35.226,58.5 68.564,0 89.322,0 		"/>
	</g>
	<g>
		<path fill="#FBFAF6" d="M129.908,25.9h7.824l-5.472,27.264h16.848l-1.296,6.336h-24.624L129.908,25.9z"/>
		<path fill="#FBFAF6" d="M179.108,48.604h-19.776c0.256,3.521,2.479,5.28,6.672,5.28c1.312,0,2.568-0.208,3.768-0.624
			c1.2-0.415,2.248-1.008,3.144-1.775l3.12,4.943c-1.44,1.152-3.088,2.017-4.944,2.592c-1.856,0.576-3.809,0.864-5.856,0.864
			c-2.657,0-4.985-0.472-6.984-1.416c-2-0.943-3.536-2.296-4.608-4.056c-1.072-1.76-1.608-3.792-1.608-6.096
			c0-2.849,0.648-5.416,1.944-7.704c1.296-2.288,3.096-4.08,5.4-5.376c2.304-1.296,4.927-1.944,7.872-1.944
			c2.496,0,4.664,0.464,6.504,1.392c1.839,0.929,3.264,2.257,4.272,3.984c1.008,1.729,1.512,3.729,1.512,6
			C179.54,45.853,179.396,47.164,179.108,48.604z M162.452,40.324c-1.216,0.944-2.081,2.248-2.592,3.912h12.816
			c0-1.664-0.521-2.968-1.56-3.912c-1.04-0.943-2.44-1.416-4.2-1.416C165.155,38.908,163.667,39.381,162.452,40.324z"/>
		<path fill="#FBFAF6" d="M212.995,33.676L207.859,59.5h-7.104l0.48-2.544c-2.145,1.952-4.784,2.928-7.92,2.928
			c-2.016,0-3.873-0.463-5.568-1.392c-1.696-0.928-3.048-2.264-4.056-4.008c-1.008-1.744-1.512-3.8-1.512-6.168
			c0-2.849,0.631-5.416,1.896-7.704c1.264-2.288,2.983-4.08,5.16-5.376c2.176-1.296,4.576-1.944,7.2-1.944
			c3.968,0,6.768,1.296,8.4,3.888l0.672-3.504H212.995z M199.555,52.612c1.152-0.721,2.047-1.72,2.688-3
			c0.64-1.28,0.96-2.752,0.96-4.416c0-1.76-0.521-3.151-1.56-4.177c-1.04-1.023-2.488-1.535-4.344-1.535
			c-1.472,0-2.784,0.359-3.936,1.08c-1.152,0.72-2.048,1.72-2.688,3c-0.641,1.28-0.96,2.752-0.96,4.416
			c0,1.76,0.52,3.151,1.56,4.176c1.04,1.024,2.488,1.536,4.344,1.536C197.091,53.692,198.403,53.332,199.555,52.612z"/>
		<path fill="#FBFAF6" d="M230.442,34.108c1.584-0.544,3.448-0.816,5.592-0.816l-1.344,6.912c-0.896-0.063-1.472-0.096-1.728-0.096
			c-2.272,0-4.088,0.56-5.448,1.68c-1.36,1.12-2.28,2.864-2.76,5.231l-2.496,12.48h-7.488l5.136-25.824h7.104l-0.624,3.072
			C227.506,35.532,228.858,34.652,230.442,34.108z"/>
		<path fill="#FBFAF6" d="M262.291,35.572c1.696,1.52,2.544,3.688,2.544,6.504c0,1.056-0.112,2.096-0.336,3.12l-2.88,14.304h-7.488
			l2.784-13.824c0.127-0.544,0.192-1.136,0.192-1.775c0-1.345-0.368-2.368-1.104-3.072c-0.736-0.704-1.84-1.056-3.312-1.056
			c-1.92,0-3.512,0.552-4.776,1.655c-1.265,1.104-2.12,2.761-2.568,4.969L242.754,59.5h-7.488l5.136-25.824h7.104l-0.576,2.784
			c2.304-2.112,5.136-3.168,8.496-3.168C258.307,33.292,260.594,34.053,262.291,35.572z"/>
		<path fill="#FBFAF6" d="M274.818,56.932c-2.4-2.095-3.6-4.968-3.6-8.615c0-1.057,0.128-2.257,0.384-3.601l3.744-18.815h7.824
			l-3.744,18.672c-0.192,1.056-0.288,2-0.288,2.832c0,2.016,0.552,3.527,1.656,4.536c1.104,1.008,2.712,1.512,4.824,1.512
			c2.368,0,4.255-0.704,5.664-2.112c1.408-1.407,2.432-3.664,3.072-6.768l3.744-18.672h7.632l-3.792,19.151
			c-2.048,10.017-7.776,15.024-17.184,15.024C280.53,60.076,277.218,59.028,274.818,56.932z"/>
		<path fill="#FBFAF6" d="M309.306,59.14c-2-0.495-3.56-1.144-4.68-1.943l2.88-5.424c1.12,0.736,2.488,1.328,4.104,1.775
			c1.615,0.448,3.24,0.672,4.872,0.672c1.695,0,2.959-0.216,3.792-0.647c0.832-0.433,1.248-1.048,1.248-1.849
			c0-0.64-0.368-1.104-1.104-1.392c-0.736-0.288-1.92-0.592-3.552-0.912c-1.856-0.352-3.384-0.735-4.584-1.152
			c-1.2-0.415-2.24-1.096-3.12-2.04c-0.88-0.943-1.32-2.231-1.32-3.863c0-2.848,1.192-5.071,3.576-6.672s5.512-2.4,9.384-2.4
			c1.792,0,3.536,0.192,5.231,0.576c1.696,0.384,3.137,0.912,4.32,1.584l-2.688,5.472c-2.112-1.312-4.656-1.968-7.632-1.968
			c-1.632,0-2.873,0.24-3.72,0.72c-0.848,0.48-1.272,1.089-1.272,1.824c0,0.672,0.368,1.16,1.104,1.464
			c0.736,0.305,1.968,0.633,3.696,0.984c1.824,0.353,3.319,0.728,4.488,1.128c1.168,0.4,2.184,1.064,3.048,1.992
			s1.296,2.191,1.296,3.792c0,2.88-1.209,5.104-3.624,6.672c-2.417,1.568-5.544,2.352-9.384,2.352
			C313.425,59.884,311.305,59.636,309.306,59.14z"/>
	</g>
</g>
</svg>
