<?xml version="1.0" encoding="utf-8"?>
<!-- Generator: Adobe Illustrator 16.0.0, SVG Export Plug-In . SVG Version: 6.00 Build 0)  -->
<!DOCTYPE svg PUBLIC "-//W3C//DTD SVG 1.1//EN" "http://www.w3.org/Graphics/SVG/1.1/DTD/svg11.dtd">
<svg version="1.1" id="레이어_1" xmlns="http://www.w3.org/2000/svg" xmlns:xlink="http://www.w3.org/1999/xlink" x="0px"
	 y="0px" width="427.814px" height="367.328px" viewBox="0 0 427.814 367.328" enable-background="new 0 0 427.814 367.328"
	 xml:space="preserve">
<g>
	<path fill="#487AFF" d="M237.121,187.641c29.957,62.048,3.944,136.627-58.1,166.585c-62.045,29.958-136.626,3.944-166.583-58.102
		C-17.518,234.08,8.493,159.5,70.539,129.544C132.582,99.587,207.164,125.598,237.121,187.641z"/>
	<g>
		<circle fill="#FF6936" cx="272.726" cy="155.337" r="155.054"/>
		<path fill="none" d="M133.096,222.754c-16.516-34.208-19.334-71.481-10.636-105.622c-17.471,0.315-35.155,4.315-51.921,12.411
			C8.493,159.5-17.518,234.08,12.438,296.125c29.957,62.046,104.538,88.06,166.583,58.102
			c23.142-11.173,41.265-28.554,53.347-49.178C190.433,293.724,153.464,264.938,133.096,222.754z"/>
		<g>
			<defs>
				<path id="SVGID_1_" d="M232.368,305.049c20.311-34.672,23.538-78.502,4.753-117.408
					c-21.861-45.274-67.486-71.355-114.661-70.508c-8.698,34.141-5.88,71.414,10.636,105.622
					C153.464,264.938,190.433,293.724,232.368,305.049z"/>
			</defs>
			<clipPath id="SVGID_2_">
				<use xlink:href="#SVGID_1_"  overflow="visible"/>
			</clipPath>
			<g clip-path="url(#SVGID_2_)">
				
					<rect x="-25.467" y="118.695" transform="matrix(0.8524 -0.5229 0.5229 0.8524 -44.6176 86.2543)" fill="#487AFF" width="311.863" height="6.918"/>
				
					<rect x="-18.033" y="130.813" transform="matrix(0.8524 -0.5229 0.5229 0.8524 -49.8565 91.9307)" fill="#487AFF" width="311.864" height="6.916"/>
				
					<rect x="-10.599" y="142.931" transform="matrix(0.8524 -0.5229 0.5229 0.8524 -55.0954 97.606)" fill="#487AFF" width="311.863" height="6.915"/>
				
					<rect x="-3.166" y="155.045" transform="matrix(0.8524 -0.5229 0.5229 0.8524 -60.3342 103.284)" fill="#487AFF" width="311.864" height="6.919"/>
				
					<rect x="4.267" y="167.161" transform="matrix(0.8524 -0.5229 0.5229 0.8524 -65.572 108.9582)" fill="#487AFF" width="311.866" height="6.918"/>
				
					<rect x="11.702" y="179.277" transform="matrix(0.8524 -0.5229 0.5229 0.8524 -70.8106 114.6322)" fill="#487AFF" width="311.862" height="6.919"/>
				
					<rect x="19.135" y="191.396" transform="matrix(0.8524 -0.5229 0.5229 0.8524 -76.0506 120.3105)" fill="#487AFF" width="311.865" height="6.919"/>
				
					<rect x="26.568" y="203.514" transform="matrix(0.8524 -0.5229 0.5229 0.8524 -81.2907 125.9881)" fill="#487AFF" width="311.865" height="6.919"/>
				
					<rect x="34.24" y="216.021" transform="matrix(0.8524 -0.5229 0.5229 0.8524 -86.6976 131.845)" fill="#487AFF" width="311.865" height="6.918"/>
				
					<rect x="41.704" y="228.185" transform="matrix(0.8524 -0.5229 0.5229 0.8524 -91.9567 137.5428)" fill="#487AFF" width="311.864" height="6.917"/>
				
					<rect x="49.168" y="240.352" transform="matrix(0.8524 -0.5229 0.5229 0.8524 -97.2166 143.2408)" fill="#487AFF" width="311.864" height="6.917"/>
				
					<rect x="56.631" y="252.518" transform="matrix(0.8524 -0.5229 0.5229 0.8524 -102.4775 148.9409)" fill="#487AFF" width="311.865" height="6.919"/>
				
					<rect x="64.155" y="264.783" transform="matrix(0.8524 -0.5229 0.5229 0.8524 -107.7784 154.6819)" fill="#487AFF" width="311.863" height="6.915"/>
				
					<rect x="71.588" y="276.897" transform="matrix(0.8524 -0.5229 0.5229 0.8524 -113.0178 160.36)" fill="#487AFF" width="311.864" height="6.919"/>
				
					<rect x="79.023" y="289.015" transform="matrix(0.8524 -0.5229 0.5229 0.8524 -118.2567 166.0361)" fill="#487AFF" width="311.864" height="6.919"/>
			</g>
		</g>
	</g>
</g>
</svg>
