<?xml version="1.0" encoding="utf-8"?>
<!-- Generator: Adobe Illustrator 16.0.0, SVG Export Plug-In . SVG Version: 6.00 Build 0)  -->
<!DOCTYPE svg PUBLIC "-//W3C//DTD SVG 1.1//EN" "http://www.w3.org/Graphics/SVG/1.1/DTD/svg11.dtd">
<svg version="1.1" id="레이어_1" xmlns="http://www.w3.org/2000/svg" xmlns:xlink="http://www.w3.org/1999/xlink" x="0px"
	 y="0px" width="932.255px" height="800px" viewBox="0 0 932.255 800" enable-background="new 0 0 932.255 800"
	 xml:space="preserve">
<g>
	<path fill="#487AFF" d="M516.712,409.996c65.28,135.211,8.595,297.728-126.606,363.009
		C254.902,838.287,92.382,781.6,27.103,646.395c-65.277-135.203-8.596-297.722,126.608-362.999
		C288.911,218.116,451.433,274.797,516.712,409.996z"/>
	<g>
		<path fill="#FF6936" d="M898.57,192.691c81.134,168.043,10.679,370.044-157.359,451.177
			c-168.043,81.136-370.045,10.681-451.179-157.356c-81.138-168.045-10.685-370.042,157.36-451.178
			C615.436-45.804,817.434,24.649,898.57,192.691z"/>
		<path fill="none" d="M290.032,486.512c-35.991-74.542-42.131-155.765-23.178-230.161c-38.072,0.686-76.606,9.403-113.143,27.045
			C18.507,348.672-38.174,511.191,27.103,646.395C92.382,781.6,254.902,838.287,390.106,773.005
			c50.428-24.348,89.922-62.222,116.249-107.164C414.974,641.162,334.417,578.436,290.032,486.512z"/>
		<g>
			<defs>
				<path id="SVGID_1_" d="M506.355,665.841c44.259-75.554,51.293-171.065,10.357-255.845
					c-47.638-98.658-147.06-155.491-249.858-153.646c-18.953,74.396-12.813,155.619,23.178,230.161
					C334.417,578.436,414.974,641.162,506.355,665.841z"/>
			</defs>
			<clipPath id="SVGID_2_">
				<use xlink:href="#SVGID_1_"  overflow="visible"/>
			</clipPath>
			<g clip-path="url(#SVGID_2_)">
				<polygon fill="#487AFF" points="577.873,96.031 -1.395,451.399 -9.28,438.551 569.993,83.182 				"/>
				
					<rect x="-39.295" y="286.161" transform="matrix(0.8524 -0.5229 0.5229 0.8524 -109.2206 200.4901)" fill="#487AFF" width="679.588" height="15.071"/>
				
					<rect x="-23.096" y="312.567" transform="matrix(0.8524 -0.5229 0.5229 0.8524 -120.6371 212.8583)" fill="#487AFF" width="679.584" height="15.068"/>
				
					<rect x="-6.898" y="338.964" transform="matrix(0.8524 -0.5229 0.5229 0.8524 -132.0526 225.2301)" fill="#487AFF" width="679.587" height="15.077"/>
				<polygon fill="#487AFF" points="642.669,201.646 63.397,557.018 55.52,544.164 634.784,188.798 				"/>
				
					<rect x="25.501" y="391.77" transform="matrix(0.8524 -0.5229 0.5229 0.8524 -154.8818 249.9598)" fill="#487AFF" width="679.583" height="15.079"/>
				<polygon fill="#487AFF" points="675.066,254.457 95.797,609.829 87.917,596.976 667.186,241.609 				"/>
				
					<rect x="57.895" y="444.585" transform="matrix(0.8524 -0.5229 0.5229 0.8524 -177.7195 274.7053)" fill="#487AFF" width="679.588" height="15.077"/>
				
					<rect x="74.613" y="471.839" transform="matrix(0.8524 -0.5229 0.5229 0.8524 -189.5018 287.4683)" fill="#487AFF" width="679.589" height="15.075"/>
				<polygon fill="#487AFF" points="724.248,334.622 144.98,689.992 137.094,677.146 716.363,321.776 				"/>
				<polygon fill="#487AFF" points="740.513,361.135 161.244,716.503 153.359,703.656 732.627,348.287 				"/>
				<polygon fill="#487AFF" points="756.774,387.649 177.506,743.02 169.625,730.167 748.887,374.796 				"/>
				<polygon fill="#487AFF" points="773.169,414.371 193.899,769.734 186.018,756.892 765.285,401.517 				"/>
				
					<rect x="155.998" y="604.494" transform="matrix(0.8524 -0.5229 0.5229 0.8524 -246.8558 349.605)" fill="#487AFF" width="679.588" height="15.078"/>
				
					<rect x="172.199" y="630.901" transform="matrix(0.8524 -0.5229 0.5229 0.8524 -258.2728 361.9745)" fill="#487AFF" width="679.587" height="15.077"/>
			</g>
		</g>
	</g>
</g>
</svg>
