<?xml version="1.0" encoding="utf-8"?>
<!-- Generator: Adobe Illustrator 16.0.0, SVG Export Plug-In . SVG Version: 6.00 Build 0)  -->
<!DOCTYPE svg PUBLIC "-//W3C//DTD SVG 1.1//EN" "http://www.w3.org/Graphics/SVG/1.1/DTD/svg11.dtd">
<svg version="1.1" id="레이어_1" xmlns="http://www.w3.org/2000/svg" xmlns:xlink="http://www.w3.org/1999/xlink" x="0px"
	 y="0px" width="500px" height="440.879px" viewBox="0 0 500 440.879" enable-background="new 0 0 500 440.879"
	 xml:space="preserve">
<g>
	<polygon fill="#FF6936" points="250.612,1.271 250.612,78.077 359.81,78.695 328.464,39.986 359.81,1.271 	"/>
	<polygon fill="#ECE6F2" points="-0.173,441.546 499.827,441.546 390.11,185.099 338.386,196.596 250.612,78.104 106.935,294.69 
		69.576,287.385 	"/>
	<polygon fill="#98BBF9" points="-0.173,441.546 249.829,441.546 249.829,330.087 138.119,247.687 106.935,294.69 69.576,287.385 	
		"/>
	<polygon fill="#709BFC" points="248.262,441.546 389.586,441.546 357.194,283.439 298.677,277.164 248.523,330.531 	"/>
	<polygon fill="#487AFF" points="389.586,441.546 499.827,441.546 411.011,233.939 356.675,283.439 	"/>
	<polygon fill="#FFF5F5" points="250.612,78.104 248.523,329.129 138.119,247.687 	"/>
</g>
</svg>
