<?xml version="1.0" encoding="utf-8"?>
<!-- Generator: Adobe Illustrator 16.0.0, SVG Export Plug-In . SVG Version: 6.00 Build 0)  -->
<!DOCTYPE svg PUBLIC "-//W3C//DTD SVG 1.1//EN" "http://www.w3.org/Graphics/SVG/1.1/DTD/svg11.dtd">
<svg version="1.1" id="레이어_1" xmlns="http://www.w3.org/2000/svg" xmlns:xlink="http://www.w3.org/1999/xlink" x="0px"
	 y="0px" width="500px" height="515.689px" viewBox="0 0 500 515.689" enable-background="new 0 0 500 515.689"
	 xml:space="preserve">
<path fill="#CECEE5" d="M136.116,237.733l124.106,128.391l-59.095,26.571c0,0-5.422,3.795-8.677-2.177
	c0,0-76.99-79.703-82.411-81.869c0,0-6.237-5.153,0-12.471L136.116,237.733z"/>
<path fill="#EBE5F1" d="M119.47,275.043l107.263,106.14l-25.606,11.513c0,0-5.427,3.795-8.677-2.177c0,0-76.99-79.703-82.411-81.869
	c0,0-6.237-5.153,0-12.471L119.47,275.043z"/>
<path fill="#FF6936" d="M144.198,240.319l-73.197,5.972c0,0-8.132,2.167-3.255-5.972c4.877-8.128,29.821-135.548,160.491-102.467"/>
<path fill="#D64625" d="M257.511,355.281l-4.331,72.651c0,0-3.255,6.513,4.331,4.885c7.599-1.629,149.104-36.337,98.139-162.661"/>
<path fill="#FEF4F4" d="M258.6,365.035l116.707-96.777c0,0,81.737-54.09,110.2-132.572c0,0-84.847-111.729-121.314-121.041
	c0,0-69.806,17.344-145.037,123.889l-84.667,102.842C134.488,241.375,220.777,330.48,258.6,365.035z"/>
<path fill="#EBE5F1" d="M256.772,367.669l118.534-99.411c0,0,81.737-54.09,110.2-132.572c0,0-20.645-56.562-57.104-65.869
	L196.368,303.109c0,0,23.6,26.44,60.325,60.181C257.33,363.874,256.138,367.085,256.772,367.669z"/>
<path fill="#FF6936" d="M485.506,135.686c0,0,24.396-65.473,10.161-127.28c0,0-0.113-4.191-3.504-4.463
	c0,0-61.411-14.1-127.972,10.703C364.192,14.645,415.292,70.049,485.506,135.686z"/>
<path fill="#D64625" d="M485.506,135.686c0,0,24.396-65.473,10.161-127.28c0,0-0.113-4.191-3.504-4.463
	c0,0-35.12,29.23-68.578,71.915C423.585,75.857,415.292,70.049,485.506,135.686z"/>
<path fill="#D64625" d="M287.318,212.824c6.411,6.313,12.603,10.527,5.787,17.446L167.454,357.821
	c-6.808,6.909-17.524,7.401-23.942,1.092l0,0c-6.418-6.313-6.1-17.051,0.71-23.977l125.652-127.534
	C276.691,200.477,280.898,206.501,287.318,212.824L287.318,212.824z"/>
<path fill="#FF6936" d="M287.318,212.824c-6.078,10.221-143.806,146.089-143.806,146.089l0,0c-6.418-6.313-6.1-17.051,0.71-23.977
	l125.652-127.534C276.691,200.477,280.898,206.501,287.318,212.824L287.318,212.824z"/>
<path fill="#202125" d="M391.334,186.345c-21.155,22.027-56.158,22.741-78.2,1.582c-22.027-21.148-22.729-56.166-1.574-78.193
	c21.154-22.034,56.171-22.737,78.199-1.578C411.787,129.306,412.489,164.317,391.334,186.345z"/>
<path fill="#15141B" d="M391.235,186.252c-21.156,22.029-57.069,21.865-78.19,1.578l76.612-79.771
	C410.778,128.341,412.399,164.224,391.235,186.252z"/>
<path fill="#FDF59E" d="M370.212,166.062c-9.945,10.363-26.428,10.704-36.795,0.749c-10.355-9.953-10.687-26.429-0.736-36.801
	c9.947-10.369,26.429-10.697,36.795-0.737C379.845,139.224,380.173,155.701,370.212,166.062z"/>
<path fill="#FDE04D" d="M370.124,165.973c-9.958,10.361-27.418,9.749-36.796,0.747l36.047-37.545
	C378.766,138.192,380.083,155.604,370.124,165.973z"/>
<path fill="#487AFF" d="M155.644,418.39c0.468,35.162-35.211,63.003-69.504,68.268c-7.772,1.191,5.276-28.891,0.079-24.179
	c-8.691,7.886-57.574,33.286-63.042,25.052c-2.932-4.425,20.979-50.069,19.964-55.897c-0.726-4.176-17.63,13.91-18.875,5.807
	c-1.1-7.174-0.459-22.755,1.271-29.765c6.715-27.224,25.238-52.813,52.449-56.986C112.282,345.424,155.075,375.732,155.644,418.39z"
	/>
<path fill="#709BFC" d="M153.308,408.159c0.374,27.919-27.959,50.025-55.188,54.201c-6.17,0.946,4.191-22.935,0.063-19.193
	c-6.902,6.257-45.715,26.429-50.057,19.891c-2.329-3.516,16.657-39.757,15.852-44.385c-0.576-3.318-13.997,11.044-14.986,4.611
	c-0.874-5.699-0.366-18.07,1.01-23.634c5.331-21.62,20.04-41.937,41.646-45.252C118.878,350.218,152.858,374.285,153.308,408.159z"
	/>
<path fill="#98BBF9" d="M145.092,397.399c0.271,20.439-20.471,36.626-40.407,39.684c-4.517,0.697,3.068-16.794,0.046-14.048
	c-5.053,4.574-33.47,19.351-36.649,14.558c-1.705-2.573,12.197-29.105,11.607-32.491c-0.424-2.437-10.25,8.081-10.975,3.373
	c-0.64-4.173-0.267-13.23,0.74-17.304c3.901-15.828,14.671-30.704,30.49-33.134C119.883,354.977,144.761,372.604,145.092,397.399z"
	/>
<path fill="#FEF4F4" d="M142.738,387.048c0.177,13.143-13.165,23.554-25.981,25.522c-2.909,0.446,1.969-10.804,0.029-9.034
	c-3.257,2.942-21.53,12.442-23.572,9.363c-1.1-1.656,7.844-18.724,7.464-20.9c-0.272-1.564-6.596,5.196-7.062,2.172
	c-0.407-2.687-0.169-8.514,0.477-11.132c2.513-10.181,9.437-19.749,19.612-21.309C126.529,359.761,142.529,371.1,142.738,387.048z"
	/>
<path fill="#487AFF" d="M0.127,419.624c0,0-0.363-17.031,15.971-18.12C16.099,401.504,16.099,415.242,0.127,419.624z"/>
<path fill="#487AFF" d="M47.451,497.274c0,0,0,13.958-18.285,18.415C29.166,515.689,28.751,498.381,47.451,497.274"/>
<path fill="#487AFF" d="M24.22,450.813c0,0,0,8.405-11.011,11.089C13.209,461.901,12.959,451.475,24.22,450.813"/>
<path fill="#487AFF" d="M117.142,485.658c0,0,0,8.405-11.011,11.087C106.131,496.745,105.882,486.324,117.142,485.658"/>
</svg>
